<?xml version="1.0" encoding="UTF-8" standalone="no"?>
<!DOCTYPE svg PUBLIC "-//W3C//DTD SVG 1.1//EN"
 "http://www.w3.org/Graphics/SVG/1.1/DTD/svg11.dtd">
<!-- Generated by graphviz version 2.40.1 (20161225.0304)
 -->
<!-- Title: pastafarianism Pages: 1 -->
<svg width="683pt" height="260pt"
 viewBox="0.00 0.00 682.80 260.00" xmlns="http://www.w3.org/2000/svg" xmlns:xlink="http://www.w3.org/1999/xlink">
<g id="graph0" class="graph" transform="scale(1 1) rotate(0) translate(4 256)">
<title>pastafarianism</title>
<polygon fill="#ffffff" stroke="transparent" points="-4,4 -4,-256 678.8017,-256 678.8017,4 -4,4"/>
<!-- Attentional Trees Root -->
<g id="node1" class="node">
<title>Attentional Trees Root</title>
<polygon fill="#ffa500" stroke="#000000" points="436.1329,-252 339.1329,-252 339.1329,-216 436.1329,-216 436.1329,-252"/>
<text text-anchor="middle" x="387.6329" y="-231.8" font-family="Times,serif" font-size="9.00" fill="#000000">Attentional Trees Root</text>
</g>
<!-- Initialise Blackboard Subtree -->
<g id="node2" class="node">
<title>Initialise Blackboard Subtree</title>
<polygon fill="#ffa500" stroke="#000000" points="395.1329,-180 276.1329,-180 276.1329,-144 395.1329,-144 395.1329,-180"/>
<text text-anchor="middle" x="335.6329" y="-159.8" font-family="Times,serif" font-size="9.00" fill="#000000">Initialise Blackboard Subtree</text>
</g>
<!-- Attentional Trees Root&#45;&gt;Initialise Blackboard Subtree -->
<g id="edge1" class="edge">
<title>Attentional Trees Root&#45;&gt;Initialise Blackboard Subtree</title>
<path fill="none" stroke="#000000" d="M374.5111,-215.8314C368.583,-207.6232 361.46,-197.7606 354.9395,-188.7323"/>
<polygon fill="#000000" stroke="#000000" points="357.6237,-186.4708 348.9314,-180.4133 351.9489,-190.5693 357.6237,-186.4708"/>
</g>
<!-- End -->
<g id="node9" class="node">
<title>End</title>
<ellipse fill="#c0c0c0" stroke="#000000" cx="440.6329" cy="-162" rx="27" ry="18"/>
<text text-anchor="middle" x="440.6329" y="-159.8" font-family="Times,serif" font-size="9.00" fill="#000000">End</text>
</g>
<!-- Attentional Trees Root&#45;&gt;End -->
<g id="edge8" class="edge">
<title>Attentional Trees Root&#45;&gt;End</title>
<path fill="none" stroke="#000000" d="M401.007,-215.8314C407.4871,-207.0283 415.368,-196.3221 422.3897,-186.7832"/>
<polygon fill="#000000" stroke="#000000" points="425.4222,-188.5675 428.5317,-178.4393 419.7849,-184.4178 425.4222,-188.5675"/>
</g>
<!-- Initialise PreCondition List in Blackboard -->
<g id="node3" class="node">
<title>Initialise PreCondition List in Blackboard</title>
<polygon fill="#00ffff" stroke="#000000" points="326.1065,-82.5442 326.1065,-97.4558 266.0788,-108 181.1869,-108 121.1593,-97.4558 121.1593,-82.5442 181.1869,-72 266.0788,-72 326.1065,-82.5442"/>
<text text-anchor="middle" x="223.6329" y="-87.8" font-family="Times,serif" font-size="9.00" fill="#000000">Initialise PreCondition List in Blackboard</text>
</g>
<!-- Initialise Blackboard Subtree&#45;&gt;Initialise PreCondition List in Blackboard -->
<g id="edge2" class="edge">
<title>Initialise Blackboard Subtree&#45;&gt;Initialise PreCondition List in Blackboard</title>
<path fill="none" stroke="#000000" d="M307.3706,-143.8314C293.1777,-134.7074 275.8047,-123.539 260.5693,-113.7449"/>
<polygon fill="#000000" stroke="#000000" points="262.1906,-110.6263 251.8862,-108.1628 258.4053,-116.5146 262.1906,-110.6263"/>
</g>
<!-- Initialise Postcondition List in Blackboard -->
<g id="node6" class="node">
<title>Initialise Postcondition List in Blackboard</title>
<polygon fill="#00ffff" stroke="#000000" points="550.8564,-82.5442 550.8564,-97.4558 490.3895,-108 404.8763,-108 344.4094,-97.4558 344.4094,-82.5442 404.8763,-72 490.3895,-72 550.8564,-82.5442"/>
<text text-anchor="middle" x="447.6329" y="-87.8" font-family="Times,serif" font-size="9.00" fill="#000000">Initialise Postcondition List in Blackboard</text>
</g>
<!-- Initialise Blackboard Subtree&#45;&gt;Initialise Postcondition List in Blackboard -->
<g id="edge5" class="edge">
<title>Initialise Blackboard Subtree&#45;&gt;Initialise Postcondition List in Blackboard</title>
<path fill="none" stroke="#000000" d="M363.8952,-143.8314C378.0881,-134.7074 395.4611,-123.539 410.6964,-113.7449"/>
<polygon fill="#000000" stroke="#000000" points="412.8605,-116.5146 419.3796,-108.1628 409.0751,-110.6263 412.8605,-116.5146"/>
</g>
<!-- CheckBlackboardVariableExists -->
<g id="node4" class="node">
<title>CheckBlackboardVariableExists</title>
<ellipse fill="#c0c0c0" stroke="#000000" cx="75.6329" cy="-18" rx="75.766" ry="18"/>
<text text-anchor="middle" x="75.6329" y="-15.8" font-family="Times,serif" font-size="9.00" fill="#000000">CheckBlackboardVariableExists</text>
</g>
<!-- Initialise PreCondition List in Blackboard&#45;&gt;CheckBlackboardVariableExists -->
<g id="edge3" class="edge">
<title>Initialise PreCondition List in Blackboard&#45;&gt;CheckBlackboardVariableExists</title>
<path fill="none" stroke="#000000" d="M186.2862,-71.8314C165.5492,-61.743 139.6745,-49.1554 118.1611,-38.6894"/>
<polygon fill="#000000" stroke="#000000" points="119.4512,-35.4248 108.9277,-34.1975 116.3889,-41.7195 119.4512,-35.4248"/>
</g>
<!-- Pre&#45;Post&#45;Condition Handling -->
<g id="node5" class="node">
<title>Pre&#45;Post&#45;Condition Handling</title>
<ellipse fill="#c0c0c0" stroke="#000000" cx="238.6329" cy="-18" rx="69.719" ry="18"/>
<text text-anchor="middle" x="238.6329" y="-15.8" font-family="Times,serif" font-size="9.00" fill="#000000">Pre&#45;Post&#45;Condition Handling</text>
</g>
<!-- Initialise PreCondition List in Blackboard&#45;&gt;Pre&#45;Post&#45;Condition Handling -->
<g id="edge4" class="edge">
<title>Initialise PreCondition List in Blackboard&#45;&gt;Pre&#45;Post&#45;Condition Handling</title>
<path fill="none" stroke="#000000" d="M227.418,-71.8314C229.0223,-64.131 230.9299,-54.9743 232.7128,-46.4166"/>
<polygon fill="#000000" stroke="#000000" points="236.1836,-46.9169 234.7968,-36.4133 229.3307,-45.4892 236.1836,-46.9169"/>
</g>
<!-- CheckBlackboardVariableExists* -->
<g id="node7" class="node">
<title>CheckBlackboardVariableExists*</title>
<ellipse fill="#c0c0c0" stroke="#000000" cx="433.6329" cy="-18" rx="78.5393" ry="18"/>
<text text-anchor="middle" x="433.6329" y="-15.8" font-family="Times,serif" font-size="9.00" fill="#000000">CheckBlackboardVariableExists*</text>
</g>
<!-- Initialise Postcondition List in Blackboard&#45;&gt;CheckBlackboardVariableExists* -->
<g id="edge6" class="edge">
<title>Initialise Postcondition List in Blackboard&#45;&gt;CheckBlackboardVariableExists*</title>
<path fill="none" stroke="#000000" d="M444.1001,-71.8314C442.6028,-64.131 440.8223,-54.9743 439.1583,-46.4166"/>
<polygon fill="#000000" stroke="#000000" points="442.5577,-45.5614 437.2132,-36.4133 435.6864,-46.8975 442.5577,-45.5614"/>
</g>
<!-- Pre&#45;Post&#45;Condition Handling* -->
<g id="node8" class="node">
<title>Pre&#45;Post&#45;Condition Handling*</title>
<ellipse fill="#c0c0c0" stroke="#000000" cx="602.6329" cy="-18" rx="72.338" ry="18"/>
<text text-anchor="middle" x="602.6329" y="-15.8" font-family="Times,serif" font-size="9.00" fill="#000000">Pre&#45;Post&#45;Condition Handling*</text>
</g>
<!-- Initialise Postcondition List in Blackboard&#45;&gt;Pre&#45;Post&#45;Condition Handling* -->
<g id="edge7" class="edge">
<title>Initialise Postcondition List in Blackboard&#45;&gt;Pre&#45;Post&#45;Condition Handling*</title>
<path fill="none" stroke="#000000" d="M486.7459,-71.8314C508.8162,-61.5793 536.4432,-48.7462 559.1864,-38.1816"/>
<polygon fill="#000000" stroke="#000000" points="560.6867,-41.3439 568.2815,-33.9568 557.7376,-34.9954 560.6867,-41.3439"/>
</g>
</g>
</svg>
