<?xml version="1.0" encoding="UTF-8" standalone="no"?>
<!DOCTYPE svg PUBLIC "-//W3C//DTD SVG 1.1//EN"
 "http://www.w3.org/Graphics/SVG/1.1/DTD/svg11.dtd">
<!-- Generated by graphviz version 2.40.1 (20161225.0304)
 -->
<!-- Title: pastafarianism Pages: 1 -->
<svg width="294pt" height="116pt"
 viewBox="0.00 0.00 294.41 116.00" xmlns="http://www.w3.org/2000/svg" xmlns:xlink="http://www.w3.org/1999/xlink">
<g id="graph0" class="graph" transform="scale(1 1) rotate(0) translate(4 112)">
<title>pastafarianism</title>
<polygon fill="#ffffff" stroke="transparent" points="-4,4 -4,-112 290.4064,-112 290.4064,4 -4,4"/>
<!-- Blackboard Demo Access to Emphasis -->
<g id="node1" class="node">
<title>Blackboard Demo Access to Emphasis</title>
<polygon fill="#ffa500" stroke="#000000" points="214.0278,-108 59.0278,-108 59.0278,-72 214.0278,-72 214.0278,-108"/>
<text text-anchor="middle" x="136.5278" y="-87.8" font-family="Times,serif" font-size="9.00" fill="#000000">Blackboard Demo Access to Emphasis</text>
</g>
<!-- Set Emphasis -->
<g id="node2" class="node">
<title>Set Emphasis</title>
<ellipse fill="#c0c0c0" stroke="#000000" cx="37.5278" cy="-18" rx="37.5556" ry="18"/>
<text text-anchor="middle" x="37.5278" y="-15.8" font-family="Times,serif" font-size="9.00" fill="#000000">Set Emphasis</text>
</g>
<!-- Blackboard Demo Access to Emphasis&#45;&gt;Set Emphasis -->
<g id="edge1" class="edge">
<title>Blackboard Demo Access to Emphasis&#45;&gt;Set Emphasis</title>
<path fill="none" stroke="#000000" d="M111.5459,-71.8314C97.9792,-61.9647 81.1252,-49.7073 66.9284,-39.3822"/>
<polygon fill="#000000" stroke="#000000" points="68.6313,-36.293 58.4853,-33.2418 64.5141,-41.9542 68.6313,-36.293"/>
</g>
<!-- Check Emphasis -->
<g id="node3" class="node">
<title>Check Emphasis</title>
<ellipse fill="#c0c0c0" stroke="#000000" cx="136.5278" cy="-18" rx="43.7576" ry="18"/>
<text text-anchor="middle" x="136.5278" y="-15.8" font-family="Times,serif" font-size="9.00" fill="#000000">Check Emphasis</text>
</g>
<!-- Blackboard Demo Access to Emphasis&#45;&gt;Check Emphasis -->
<g id="edge2" class="edge">
<title>Blackboard Demo Access to Emphasis&#45;&gt;Check Emphasis</title>
<path fill="none" stroke="#000000" d="M136.5278,-71.8314C136.5278,-64.131 136.5278,-54.9743 136.5278,-46.4166"/>
<polygon fill="#000000" stroke="#000000" points="140.0279,-46.4132 136.5278,-36.4133 133.0279,-46.4133 140.0279,-46.4132"/>
</g>
<!-- ParamsAndState -->
<g id="node4" class="node">
<title>ParamsAndState</title>
<ellipse fill="#c0c0c0" stroke="#000000" cx="242.5278" cy="-18" rx="43.7576" ry="18"/>
<text text-anchor="middle" x="242.5278" y="-15.8" font-family="Times,serif" font-size="9.00" fill="#000000">ParamsAndState</text>
</g>
<!-- Blackboard Demo Access to Emphasis&#45;&gt;ParamsAndState -->
<g id="edge3" class="edge">
<title>Blackboard Demo Access to Emphasis&#45;&gt;ParamsAndState</title>
<path fill="none" stroke="#000000" d="M163.276,-71.8314C177.8365,-61.9413 195.9334,-49.649 211.1566,-39.3087"/>
<polygon fill="#000000" stroke="#000000" points="213.4337,-41.9931 219.7393,-33.479 209.5005,-36.2026 213.4337,-41.9931"/>
</g>
</g>
</svg>
