<?xml version="1.0" encoding="UTF-8" standalone="no"?>
<!DOCTYPE svg PUBLIC "-//W3C//DTD SVG 1.1//EN"
 "http://www.w3.org/Graphics/SVG/1.1/DTD/svg11.dtd">
<!-- Generated by graphviz version 2.40.1 (20161225.0304)
 -->
<!-- Title: pastafarianism Pages: 1 -->
<svg width="1204pt" height="712pt"
 viewBox="0.00 0.00 1204.05 712.00" xmlns="http://www.w3.org/2000/svg" xmlns:xlink="http://www.w3.org/1999/xlink">
<g id="graph0" class="graph" transform="scale(1 1) rotate(0) translate(4 708)">
<title>pastafarianism</title>
<polygon fill="#ffffff" stroke="transparent" points="-4,4 -4,-708 1200.0474,-708 1200.0474,4 -4,4"/>
<!-- Prepare Coffee -->
<g id="node1" class="node">
<title>Prepare Coffee</title>
<polygon fill="#ffa500" stroke="#000000" points="549.6329,-704 479.6329,-704 479.6329,-668 549.6329,-668 549.6329,-704"/>
<text text-anchor="middle" x="514.6329" y="-683.8" font-family="Times,serif" font-size="9.00" fill="#000000">Prepare Coffee</text>
</g>
<!-- Initialise Pre and Postconditions in Blackboard -->
<g id="node2" class="node">
<title>Initialise Pre and Postconditions in Blackboard</title>
<polygon fill="#ffa500" stroke="#000000" points="524.6329,-632 342.6329,-632 342.6329,-596 524.6329,-596 524.6329,-632"/>
<text text-anchor="middle" x="433.6329" y="-611.8" font-family="Times,serif" font-size="9.00" fill="#000000">Initialise Pre and Postconditions in Blackboard</text>
</g>
<!-- Prepare Coffee&#45;&gt;Initialise Pre and Postconditions in Blackboard -->
<g id="edge1" class="edge">
<title>Prepare Coffee&#45;&gt;Initialise Pre and Postconditions in Blackboard</title>
<path fill="none" stroke="#000000" d="M494.1932,-667.8314C484.3124,-659.0485 472.3005,-648.3712 461.5878,-638.8489"/>
<polygon fill="#000000" stroke="#000000" points="463.8655,-636.1906 454.0661,-632.1628 459.2149,-641.4224 463.8655,-636.1906"/>
</g>
<!-- Attentional Subtree -->
<g id="node9" class="node">
<title>Attentional Subtree</title>
<polygon fill="#00ffff" stroke="#000000" points="648.8695,-606.5442 648.8695,-621.4558 617.6842,-632 573.5816,-632 542.3963,-621.4558 542.3963,-606.5442 573.5816,-596 617.6842,-596 648.8695,-606.5442"/>
<text text-anchor="middle" x="595.6329" y="-611.8" font-family="Times,serif" font-size="9.00" fill="#000000">Attentional Subtree</text>
</g>
<!-- Prepare Coffee&#45;&gt;Attentional Subtree -->
<g id="edge8" class="edge">
<title>Prepare Coffee&#45;&gt;Attentional Subtree</title>
<path fill="none" stroke="#000000" d="M535.0726,-667.8314C544.9534,-659.0485 556.9653,-648.3712 567.6779,-638.8489"/>
<polygon fill="#000000" stroke="#000000" points="570.0509,-641.4224 575.1997,-632.1628 565.4003,-636.1906 570.0509,-641.4224"/>
</g>
<!-- Initialise PreCondition List in Blackboard -->
<g id="node3" class="node">
<title>Initialise PreCondition List in Blackboard</title>
<polygon fill="#00ffff" stroke="#000000" points="315.1065,-524.5442 315.1065,-539.4558 255.0788,-550 170.1869,-550 110.1593,-539.4558 110.1593,-524.5442 170.1869,-514 255.0788,-514 315.1065,-524.5442"/>
<text text-anchor="middle" x="212.6329" y="-529.8" font-family="Times,serif" font-size="9.00" fill="#000000">Initialise PreCondition List in Blackboard</text>
</g>
<!-- Initialise Pre and Postconditions in Blackboard&#45;&gt;Initialise PreCondition List in Blackboard -->
<g id="edge2" class="edge">
<title>Initialise Pre and Postconditions in Blackboard&#45;&gt;Initialise PreCondition List in Blackboard</title>
<path fill="none" stroke="#000000" d="M384.8599,-595.9032C350.7001,-583.2286 304.9525,-566.2543 269.1919,-552.9857"/>
<polygon fill="#000000" stroke="#000000" points="269.9814,-549.5455 259.3884,-549.3482 267.5463,-556.1083 269.9814,-549.5455"/>
</g>
<!-- Initialise Postcondition List in Blackboard -->
<g id="node6" class="node">
<title>Initialise Postcondition List in Blackboard</title>
<polygon fill="#00ffff" stroke="#000000" points="539.8564,-524.5442 539.8564,-539.4558 479.3895,-550 393.8763,-550 333.4094,-539.4558 333.4094,-524.5442 393.8763,-514 479.3895,-514 539.8564,-524.5442"/>
<text text-anchor="middle" x="436.6329" y="-529.8" font-family="Times,serif" font-size="9.00" fill="#000000">Initialise Postcondition List in Blackboard</text>
</g>
<!-- Initialise Pre and Postconditions in Blackboard&#45;&gt;Initialise Postcondition List in Blackboard -->
<g id="edge5" class="edge">
<title>Initialise Pre and Postconditions in Blackboard&#45;&gt;Initialise Postcondition List in Blackboard</title>
<path fill="none" stroke="#000000" d="M434.2987,-595.8015C434.6793,-585.3976 435.165,-572.1215 435.5947,-560.3768"/>
<polygon fill="#000000" stroke="#000000" points="439.1009,-560.2689 435.9689,-550.1476 432.1056,-560.0129 439.1009,-560.2689"/>
</g>
<!-- CheckBlackboardVariableExists -->
<g id="node4" class="node">
<title>CheckBlackboardVariableExists</title>
<ellipse fill="#c0c0c0" stroke="#000000" cx="75.6329" cy="-450" rx="75.766" ry="18"/>
<text text-anchor="middle" x="75.6329" y="-447.8" font-family="Times,serif" font-size="9.00" fill="#000000">CheckBlackboardVariableExists</text>
</g>
<!-- Initialise PreCondition List in Blackboard&#45;&gt;CheckBlackboardVariableExists -->
<g id="edge3" class="edge">
<title>Initialise PreCondition List in Blackboard&#45;&gt;CheckBlackboardVariableExists</title>
<path fill="none" stroke="#000000" d="M182.2281,-513.8015C161.5813,-501.4436 134.164,-485.0332 112.306,-471.9503"/>
<polygon fill="#000000" stroke="#000000" points="113.9982,-468.8842 103.6202,-466.7515 110.4032,-474.8905 113.9982,-468.8842"/>
</g>
<!-- Pre&#45;Post&#45;Condition Handling -->
<g id="node5" class="node">
<title>Pre&#45;Post&#45;Condition Handling</title>
<ellipse fill="#c0c0c0" stroke="#000000" cx="238.6329" cy="-450" rx="69.719" ry="18"/>
<text text-anchor="middle" x="238.6329" y="-447.8" font-family="Times,serif" font-size="9.00" fill="#000000">Pre&#45;Post&#45;Condition Handling</text>
</g>
<!-- Initialise PreCondition List in Blackboard&#45;&gt;Pre&#45;Post&#45;Condition Handling -->
<g id="edge4" class="edge">
<title>Initialise PreCondition List in Blackboard&#45;&gt;Pre&#45;Post&#45;Condition Handling</title>
<path fill="none" stroke="#000000" d="M218.4031,-513.8015C221.7356,-503.2915 225.9974,-489.8503 229.7492,-478.0177"/>
<polygon fill="#000000" stroke="#000000" points="233.1926,-478.7378 232.8788,-468.1476 226.52,-476.622 233.1926,-478.7378"/>
</g>
<!-- CheckBlackboardVariableExists* -->
<g id="node7" class="node">
<title>CheckBlackboardVariableExists*</title>
<ellipse fill="#c0c0c0" stroke="#000000" cx="433.6329" cy="-450" rx="78.5393" ry="18"/>
<text text-anchor="middle" x="433.6329" y="-447.8" font-family="Times,serif" font-size="9.00" fill="#000000">CheckBlackboardVariableExists*</text>
</g>
<!-- Initialise Postcondition List in Blackboard&#45;&gt;CheckBlackboardVariableExists* -->
<g id="edge6" class="edge">
<title>Initialise Postcondition List in Blackboard&#45;&gt;CheckBlackboardVariableExists*</title>
<path fill="none" stroke="#000000" d="M435.9671,-513.8015C435.5865,-503.3976 435.1007,-490.1215 434.6711,-478.3768"/>
<polygon fill="#000000" stroke="#000000" points="438.1602,-478.0129 434.2968,-468.1476 431.1649,-478.2689 438.1602,-478.0129"/>
</g>
<!-- Pre&#45;Post&#45;Condition Handling* -->
<g id="node8" class="node">
<title>Pre&#45;Post&#45;Condition Handling*</title>
<ellipse fill="#c0c0c0" stroke="#000000" cx="602.6329" cy="-450" rx="72.338" ry="18"/>
<text text-anchor="middle" x="602.6329" y="-447.8" font-family="Times,serif" font-size="9.00" fill="#000000">Pre&#45;Post&#45;Condition Handling*</text>
</g>
<!-- Initialise Postcondition List in Blackboard&#45;&gt;Pre&#45;Post&#45;Condition Handling* -->
<g id="edge7" class="edge">
<title>Initialise Postcondition List in Blackboard&#45;&gt;Pre&#45;Post&#45;Condition Handling*</title>
<path fill="none" stroke="#000000" d="M473.4737,-513.8015C499.2776,-501.055 533.809,-483.9973 560.6744,-470.7265"/>
<polygon fill="#000000" stroke="#000000" points="562.4148,-473.7706 569.8304,-466.2036 559.3145,-467.4945 562.4148,-473.7706"/>
</g>
<!-- CheckGoal -->
<g id="node10" class="node">
<title>CheckGoal</title>
<ellipse fill="#c0c0c0" stroke="#000000" cx="594.6329" cy="-532" rx="32.1641" ry="18"/>
<text text-anchor="middle" x="594.6329" y="-529.8" font-family="Times,serif" font-size="9.00" fill="#000000">CheckGoal</text>
</g>
<!-- Attentional Subtree&#45;&gt;CheckGoal -->
<g id="edge9" class="edge">
<title>Attentional Subtree&#45;&gt;CheckGoal</title>
<path fill="none" stroke="#000000" d="M595.411,-595.8015C595.2841,-585.3976 595.1222,-572.1215 594.9789,-560.3768"/>
<polygon fill="#000000" stroke="#000000" points="598.476,-560.1041 594.8542,-550.1476 591.4765,-560.1896 598.476,-560.1041"/>
</g>
<!-- Retrieve &amp; Expand Tree -->
<g id="node11" class="node">
<title>Retrieve &amp; Expand Tree</title>
<polygon fill="#ffd700" stroke="#000000" points="856.6311,-560 688.0117,-560 644.6347,-504 813.2541,-504 856.6311,-560"/>
<text text-anchor="middle" x="750.6329" y="-534.8" font-family="Times,serif" font-size="9.00" fill="#000000">Retrieve &amp; Expand Tree</text>
<text text-anchor="middle" x="750.6329" y="-524.8" font-family="Times,serif" font-size="9.00" fill="#000000">&#45;&#45;SuccessOnAll(⚡)&#45;&#45;</text>
</g>
<!-- Attentional Subtree&#45;&gt;Retrieve &amp; Expand Tree -->
<g id="edge10" class="edge">
<title>Attentional Subtree&#45;&gt;Retrieve &amp; Expand Tree</title>
<path fill="none" stroke="#000000" d="M625.152,-598.3834C643.1395,-588.8675 666.812,-576.3439 688.7444,-564.741"/>
<polygon fill="#000000" stroke="#000000" points="690.4886,-567.7779 697.6912,-560.0079 687.2152,-561.5904 690.4886,-567.7779"/>
</g>
<!-- SetEmphasizedObject -->
<g id="node12" class="node">
<title>SetEmphasizedObject</title>
<ellipse fill="#c0c0c0" stroke="#000000" cx="748.6329" cy="-450" rx="54.0428" ry="18"/>
<text text-anchor="middle" x="748.6329" y="-447.8" font-family="Times,serif" font-size="9.00" fill="#000000">SetEmphasizedObject</text>
</g>
<!-- Retrieve &amp; Expand Tree&#45;&gt;SetEmphasizedObject -->
<g id="edge11" class="edge">
<title>Retrieve &amp; Expand Tree&#45;&gt;SetEmphasizedObject</title>
<path fill="none" stroke="#000000" d="M749.9446,-503.7803C749.7466,-495.6628 749.5305,-486.8027 749.3319,-478.659"/>
<polygon fill="#000000" stroke="#000000" points="752.8267,-478.4003 749.0838,-468.4887 745.8288,-478.5711 752.8267,-478.4003"/>
</g>
<!-- Retrieve &amp; Expand Emphasized Subtree -->
<g id="node13" class="node">
<title>Retrieve &amp; Expand Emphasized Subtree</title>
<polygon fill="#ffa500" stroke="#000000" points="978.6329,-468 820.6329,-468 820.6329,-432 978.6329,-432 978.6329,-468"/>
<text text-anchor="middle" x="899.6329" y="-447.8" font-family="Times,serif" font-size="9.00" fill="#000000">Retrieve &amp; Expand Emphasized Subtree</text>
</g>
<!-- Retrieve &amp; Expand Tree&#45;&gt;Retrieve &amp; Expand Emphasized Subtree -->
<g id="edge12" class="edge">
<title>Retrieve &amp; Expand Tree&#45;&gt;Retrieve &amp; Expand Emphasized Subtree</title>
<path fill="none" stroke="#000000" d="M801.9102,-503.7803C820.1182,-493.7598 840.3825,-482.6076 857.7161,-473.0683"/>
<polygon fill="#000000" stroke="#000000" points="859.4135,-476.1292 866.4869,-468.2414 856.0384,-469.9966 859.4135,-476.1292"/>
</g>
<!-- Retrieve Subtree -->
<g id="node14" class="node">
<title>Retrieve Subtree</title>
<polygon fill="#00ffff" stroke="#000000" points="874.3712,-370.5442 874.3712,-385.4558 846.9925,-396 808.2733,-396 780.8946,-385.4558 780.8946,-370.5442 808.2733,-360 846.9925,-360 874.3712,-370.5442"/>
<text text-anchor="middle" x="827.6329" y="-375.8" font-family="Times,serif" font-size="9.00" fill="#000000">Retrieve Subtree</text>
</g>
<!-- Retrieve &amp; Expand Emphasized Subtree&#45;&gt;Retrieve Subtree -->
<g id="edge13" class="edge">
<title>Retrieve &amp; Expand Emphasized Subtree&#45;&gt;Retrieve Subtree</title>
<path fill="none" stroke="#000000" d="M881.4642,-431.8314C872.9176,-423.2848 862.5772,-412.9443 853.2527,-403.6198"/>
<polygon fill="#000000" stroke="#000000" points="855.5921,-401.0095 846.0462,-396.4133 850.6424,-405.9592 855.5921,-401.0095"/>
</g>
<!-- Prepare Coffee Subtree Expand* -->
<g id="node23" class="node">
<title>Prepare Coffee Subtree Expand*</title>
<polygon fill="#ffa500" stroke="#000000" points="1039.1329,-396 906.1329,-396 906.1329,-360 1039.1329,-360 1039.1329,-396"/>
<text text-anchor="middle" x="972.6329" y="-375.8" font-family="Times,serif" font-size="9.00" fill="#000000">Prepare Coffee Subtree Expand*</text>
</g>
<!-- Retrieve &amp; Expand Emphasized Subtree&#45;&gt;Prepare Coffee Subtree Expand* -->
<g id="edge22" class="edge">
<title>Retrieve &amp; Expand Emphasized Subtree&#45;&gt;Prepare Coffee Subtree Expand*</title>
<path fill="none" stroke="#000000" d="M918.0539,-431.8314C926.7858,-423.219 937.3646,-412.7851 946.8752,-403.4048"/>
<polygon fill="#000000" stroke="#000000" points="949.5559,-405.6769 954.2178,-396.1628 944.6403,-400.6931 949.5559,-405.6769"/>
</g>
<!-- Changed Emphasis? -->
<g id="node15" class="node">
<title>Changed Emphasis?</title>
<ellipse fill="#c0c0c0" stroke="#000000" cx="721.6329" cy="-306" rx="51.2686" ry="18"/>
<text text-anchor="middle" x="721.6329" y="-303.8" font-family="Times,serif" font-size="9.00" fill="#000000">Changed Emphasis?</text>
</g>
<!-- Retrieve Subtree&#45;&gt;Changed Emphasis? -->
<g id="edge14" class="edge">
<title>Retrieve Subtree&#45;&gt;Changed Emphasis?</title>
<path fill="none" stroke="#000000" d="M803.5798,-361.6621C788.8398,-351.65 769.7907,-338.711 753.7687,-327.8281"/>
<polygon fill="#000000" stroke="#000000" points="755.4644,-324.7488 745.2256,-322.0252 751.5312,-330.5394 755.4644,-324.7488"/>
</g>
<!-- Expand Subtree -->
<g id="node16" class="node">
<title>Expand Subtree</title>
<polygon fill="#ffa500" stroke="#000000" points="864.1329,-324 791.1329,-324 791.1329,-288 864.1329,-288 864.1329,-324"/>
<text text-anchor="middle" x="827.6329" y="-303.8" font-family="Times,serif" font-size="9.00" fill="#000000">Expand Subtree</text>
</g>
<!-- Retrieve Subtree&#45;&gt;Expand Subtree -->
<g id="edge15" class="edge">
<title>Retrieve Subtree&#45;&gt;Expand Subtree</title>
<path fill="none" stroke="#000000" d="M827.6329,-359.8314C827.6329,-352.131 827.6329,-342.9743 827.6329,-334.4166"/>
<polygon fill="#000000" stroke="#000000" points="831.133,-334.4132 827.6329,-324.4133 824.133,-334.4133 831.133,-334.4132"/>
</g>
<!-- Prepare Coffee Subtree Expand -->
<g id="node17" class="node">
<title>Prepare Coffee Subtree Expand</title>
<polygon fill="#ffa500" stroke="#000000" points="884.6329,-252 756.6329,-252 756.6329,-216 884.6329,-216 884.6329,-252"/>
<text text-anchor="middle" x="820.6329" y="-231.8" font-family="Times,serif" font-size="9.00" fill="#000000">Prepare Coffee Subtree Expand</text>
</g>
<!-- Expand Subtree&#45;&gt;Prepare Coffee Subtree Expand -->
<g id="edge16" class="edge">
<title>Expand Subtree&#45;&gt;Prepare Coffee Subtree Expand</title>
<path fill="none" stroke="#000000" d="M825.8665,-287.8314C825.1178,-280.131 824.2276,-270.9743 823.3956,-262.4166"/>
<polygon fill="#000000" stroke="#000000" points="826.8744,-262.0276 822.4231,-252.4133 819.9072,-262.7051 826.8744,-262.0276"/>
</g>
<!-- water -->
<g id="node18" class="node">
<title>water</title>
<polygon fill="#00ffff" stroke="#000000" points="847.6329,-154.5442 847.6329,-169.4558 831.8167,-180 809.4491,-180 793.6329,-169.4558 793.6329,-154.5442 809.4491,-144 831.8167,-144 847.6329,-154.5442"/>
<text text-anchor="middle" x="820.6329" y="-159.8" font-family="Times,serif" font-size="9.00" fill="#000000">water</text>
</g>
<!-- Prepare Coffee Subtree Expand&#45;&gt;water -->
<g id="edge17" class="edge">
<title>Prepare Coffee Subtree Expand&#45;&gt;water</title>
<path fill="none" stroke="#000000" d="M820.6329,-215.8314C820.6329,-208.131 820.6329,-198.9743 820.6329,-190.4166"/>
<polygon fill="#000000" stroke="#000000" points="824.133,-190.4132 820.6329,-180.4133 817.133,-190.4133 824.133,-190.4132"/>
</g>
<!-- CheckBlackboardVariableValue -->
<g id="node19" class="node">
<title>CheckBlackboardVariableValue</title>
<ellipse fill="#c0c0c0" stroke="#000000" cx="758.6329" cy="-90" rx="75.766" ry="18"/>
<text text-anchor="middle" x="758.6329" y="-87.8" font-family="Times,serif" font-size="9.00" fill="#000000">CheckBlackboardVariableValue</text>
</g>
<!-- water&#45;&gt;CheckBlackboardVariableValue -->
<g id="edge18" class="edge">
<title>water&#45;&gt;CheckBlackboardVariableValue</title>
<path fill="none" stroke="#000000" d="M806.5641,-145.6621C798.8961,-136.7572 789.2343,-125.5371 780.5977,-115.5075"/>
<polygon fill="#000000" stroke="#000000" points="783.1262,-113.0801 773.9488,-107.7862 777.8218,-117.6478 783.1262,-113.0801"/>
</g>
<!-- Check water -->
<g id="node20" class="node">
<title>Check water</title>
<polygon fill="#ffa500" stroke="#000000" points="913.1329,-108 852.1329,-108 852.1329,-72 913.1329,-72 913.1329,-108"/>
<text text-anchor="middle" x="882.6329" y="-87.8" font-family="Times,serif" font-size="9.00" fill="#000000">Check water</text>
</g>
<!-- water&#45;&gt;Check water -->
<g id="edge19" class="edge">
<title>water&#45;&gt;Check water</title>
<path fill="none" stroke="#000000" d="M834.7016,-145.6621C842.3133,-136.8227 851.8895,-125.702 860.4774,-115.7289"/>
<polygon fill="#000000" stroke="#000000" points="863.2234,-117.9039 867.0964,-108.0423 857.919,-113.3362 863.2234,-117.9039"/>
</g>
<!-- pour_water -->
<g id="node21" class="node">
<title>pour_water</title>
<ellipse fill="#c0c0c0" stroke="#000000" cx="838.6329" cy="-18" rx="32.8182" ry="18"/>
<text text-anchor="middle" x="838.6329" y="-15.8" font-family="Times,serif" font-size="9.00" fill="#000000">pour_water</text>
</g>
<!-- Check water&#45;&gt;pour_water -->
<g id="edge20" class="edge">
<title>Check water&#45;&gt;pour_water</title>
<path fill="none" stroke="#000000" d="M871.5298,-71.8314C866.4127,-63.4579 860.2433,-53.3626 854.6365,-44.1878"/>
<polygon fill="#000000" stroke="#000000" points="857.4781,-42.1255 849.277,-35.4177 851.5051,-45.7756 857.4781,-42.1255"/>
</g>
<!-- poured_water -->
<g id="node22" class="node">
<title>poured_water</title>
<ellipse fill="#c0c0c0" stroke="#000000" cx="926.6329" cy="-18" rx="37.5556" ry="18"/>
<text text-anchor="middle" x="926.6329" y="-15.8" font-family="Times,serif" font-size="9.00" fill="#000000">poured_water</text>
</g>
<!-- Check water&#45;&gt;poured_water -->
<g id="edge21" class="edge">
<title>Check water&#45;&gt;poured_water</title>
<path fill="none" stroke="#000000" d="M893.7359,-71.8314C898.8531,-63.4579 905.0224,-53.3626 910.6292,-44.1878"/>
<polygon fill="#000000" stroke="#000000" points="913.7607,-45.7756 915.9887,-35.4177 907.7877,-42.1255 913.7607,-45.7756"/>
</g>
<!-- water* -->
<g id="node24" class="node">
<title>water*</title>
<polygon fill="#00ffff" stroke="#000000" points="1007.6329,-298.5442 1007.6329,-313.4558 991.8167,-324 969.4491,-324 953.6329,-313.4558 953.6329,-298.5442 969.4491,-288 991.8167,-288 1007.6329,-298.5442"/>
<text text-anchor="middle" x="980.6329" y="-303.8" font-family="Times,serif" font-size="9.00" fill="#000000">water*</text>
</g>
<!-- Prepare Coffee Subtree Expand*&#45;&gt;water* -->
<g id="edge23" class="edge">
<title>Prepare Coffee Subtree Expand*&#45;&gt;water*</title>
<path fill="none" stroke="#000000" d="M974.6516,-359.8314C975.5072,-352.131 976.5246,-342.9743 977.4755,-334.4166"/>
<polygon fill="#000000" stroke="#000000" points="980.9612,-334.7386 978.587,-324.4133 974.004,-333.9656 980.9612,-334.7386"/>
</g>
<!-- CheckBlackboardVariableValue* -->
<g id="node25" class="node">
<title>CheckBlackboardVariableValue*</title>
<ellipse fill="#c0c0c0" stroke="#000000" cx="980.6329" cy="-234" rx="77.8846" ry="18"/>
<text text-anchor="middle" x="980.6329" y="-231.8" font-family="Times,serif" font-size="9.00" fill="#000000">CheckBlackboardVariableValue*</text>
</g>
<!-- water*&#45;&gt;CheckBlackboardVariableValue* -->
<g id="edge24" class="edge">
<title>water*&#45;&gt;CheckBlackboardVariableValue*</title>
<path fill="none" stroke="#000000" d="M980.6329,-287.8314C980.6329,-280.131 980.6329,-270.9743 980.6329,-262.4166"/>
<polygon fill="#000000" stroke="#000000" points="984.133,-262.4132 980.6329,-252.4133 977.133,-262.4133 984.133,-262.4132"/>
</g>
<!-- Check water* -->
<g id="node26" class="node">
<title>Check water*</title>
<polygon fill="#ffa500" stroke="#000000" points="1141.1329,-252 1076.1329,-252 1076.1329,-216 1141.1329,-216 1141.1329,-252"/>
<text text-anchor="middle" x="1108.6329" y="-231.8" font-family="Times,serif" font-size="9.00" fill="#000000">Check water*</text>
</g>
<!-- water*&#45;&gt;Check water* -->
<g id="edge25" class="edge">
<title>water*&#45;&gt;Check water*</title>
<path fill="none" stroke="#000000" d="M1001.4832,-294.2717C1019.2901,-284.2553 1045.4391,-269.5465 1067.4469,-257.1671"/>
<polygon fill="#000000" stroke="#000000" points="1069.2751,-260.1545 1076.2749,-252.2013 1065.8432,-254.0535 1069.2751,-260.1545"/>
</g>
<!-- pour_water* -->
<g id="node27" class="node">
<title>pour_water*</title>
<ellipse fill="#c0c0c0" stroke="#000000" cx="1061.6329" cy="-162" rx="35.5926" ry="18"/>
<text text-anchor="middle" x="1061.6329" y="-159.8" font-family="Times,serif" font-size="9.00" fill="#000000">pour_water*</text>
</g>
<!-- Check water*&#45;&gt;pour_water* -->
<g id="edge26" class="edge">
<title>Check water*&#45;&gt;pour_water*</title>
<path fill="none" stroke="#000000" d="M1096.7728,-215.8314C1091.2499,-207.3707 1084.5794,-197.1521 1078.5407,-187.9014"/>
<polygon fill="#000000" stroke="#000000" points="1081.3999,-185.8783 1073.0028,-179.4177 1075.5382,-189.7047 1081.3999,-185.8783"/>
</g>
<!-- poured_water* -->
<g id="node28" class="node">
<title>poured_water*</title>
<ellipse fill="#c0c0c0" stroke="#000000" cx="1155.6329" cy="-162" rx="40.3292" ry="18"/>
<text text-anchor="middle" x="1155.6329" y="-159.8" font-family="Times,serif" font-size="9.00" fill="#000000">poured_water*</text>
</g>
<!-- Check water*&#45;&gt;poured_water* -->
<g id="edge27" class="edge">
<title>Check water*&#45;&gt;poured_water*</title>
<path fill="none" stroke="#000000" d="M1120.493,-215.8314C1126.0159,-207.3707 1132.6864,-197.1521 1138.7251,-187.9014"/>
<polygon fill="#000000" stroke="#000000" points="1141.7276,-189.7047 1144.263,-179.4177 1135.8659,-185.8783 1141.7276,-189.7047"/>
</g>
</g>
</svg>
