<?xml version="1.0" encoding="UTF-8" standalone="no"?>
<!DOCTYPE svg PUBLIC "-//W3C//DTD SVG 1.1//EN"
 "http://www.w3.org/Graphics/SVG/1.1/DTD/svg11.dtd">
<!-- Generated by graphviz version 2.40.1 (20161225.0304)
 -->
<!-- Title: pastafarianism Pages: 1 -->
<svg width="430pt" height="188pt"
 viewBox="0.00 0.00 429.60 188.00" xmlns="http://www.w3.org/2000/svg" xmlns:xlink="http://www.w3.org/1999/xlink">
<g id="graph0" class="graph" transform="scale(1 1) rotate(0) translate(4 184)">
<title>pastafarianism</title>
<polygon fill="#ffffff" stroke="transparent" points="-4,4 -4,-184 425.5996,-184 425.5996,4 -4,4"/>
<!-- sequence01 -->
<g id="node1" class="node">
<title>sequence01</title>
<polygon fill="#ffa500" stroke="#000000" points="243.5996,-180 185.5996,-180 185.5996,-144 243.5996,-144 243.5996,-180"/>
<text text-anchor="middle" x="214.5996" y="-159.8" font-family="Times,serif" font-size="9.00" fill="#000000">sequence01</text>
</g>
<!-- selector01 -->
<g id="node2" class="node">
<title>selector01</title>
<polygon fill="#00ffff" stroke="#000000" points="139.8415,-82.5442 139.8415,-97.4558 120.3688,-108 92.8303,-108 73.3577,-97.4558 73.3577,-82.5442 92.8303,-72 120.3688,-72 139.8415,-82.5442"/>
<text text-anchor="middle" x="106.5996" y="-87.8" font-family="Times,serif" font-size="9.00" fill="#000000">selector01</text>
</g>
<!-- sequence01&#45;&gt;selector01 -->
<g id="edge1" class="edge">
<title>sequence01&#45;&gt;selector01</title>
<path fill="none" stroke="#000000" d="M187.3466,-143.8314C171.7401,-133.427 152.146,-120.3643 136.1679,-109.7122"/>
<polygon fill="#000000" stroke="#000000" points="137.9735,-106.7095 127.7116,-104.0747 134.0906,-112.5339 137.9735,-106.7095"/>
</g>
<!-- selector02 -->
<g id="node5" class="node">
<title>selector02</title>
<polygon fill="#00ffff" stroke="#000000" points="247.8415,-82.5442 247.8415,-97.4558 228.3688,-108 200.8303,-108 181.3577,-97.4558 181.3577,-82.5442 200.8303,-72 228.3688,-72 247.8415,-82.5442"/>
<text text-anchor="middle" x="214.5996" y="-87.8" font-family="Times,serif" font-size="9.00" fill="#000000">selector02</text>
</g>
<!-- sequence01&#45;&gt;selector02 -->
<g id="edge4" class="edge">
<title>sequence01&#45;&gt;selector02</title>
<path fill="none" stroke="#000000" d="M214.5996,-143.8314C214.5996,-136.131 214.5996,-126.9743 214.5996,-118.4166"/>
<polygon fill="#000000" stroke="#000000" points="218.0997,-118.4132 214.5996,-108.4133 211.0997,-118.4133 218.0997,-118.4132"/>
</g>
<!-- selector03 -->
<g id="node8" class="node">
<title>selector03</title>
<polygon fill="#00ffff" stroke="#000000" points="355.8415,-82.5442 355.8415,-97.4558 336.3688,-108 308.8303,-108 289.3577,-97.4558 289.3577,-82.5442 308.8303,-72 336.3688,-72 355.8415,-82.5442"/>
<text text-anchor="middle" x="322.5996" y="-87.8" font-family="Times,serif" font-size="9.00" fill="#000000">selector03</text>
</g>
<!-- sequence01&#45;&gt;selector03 -->
<g id="edge7" class="edge">
<title>sequence01&#45;&gt;selector03</title>
<path fill="none" stroke="#000000" d="M241.8525,-143.8314C257.459,-133.427 277.0532,-120.3643 293.0312,-109.7122"/>
<polygon fill="#000000" stroke="#000000" points="295.1085,-112.5339 301.4876,-104.0747 291.2256,-106.7095 295.1085,-112.5339"/>
</g>
<!-- isReached -->
<g id="node3" class="node">
<title>isReached</title>
<ellipse fill="#c0c0c0" stroke="#000000" cx="30.5996" cy="-18" rx="30.6995" ry="18"/>
<text text-anchor="middle" x="30.5996" y="-15.8" font-family="Times,serif" font-size="9.00" fill="#000000">isReached</text>
</g>
<!-- selector01&#45;&gt;isReached -->
<g id="edge2" class="edge">
<title>selector01&#45;&gt;isReached</title>
<path fill="none" stroke="#000000" d="M89.354,-73.6621C79.0347,-63.8859 65.7699,-51.3193 54.4561,-40.601"/>
<polygon fill="#000000" stroke="#000000" points="56.6621,-37.8695 46.9954,-33.5329 51.8478,-42.9512 56.6621,-37.8695"/>
</g>
<!-- reach -->
<g id="node4" class="node">
<title>reach</title>
<ellipse fill="#c0c0c0" stroke="#000000" cx="106.5996" cy="-18" rx="27" ry="18"/>
<text text-anchor="middle" x="106.5996" y="-15.8" font-family="Times,serif" font-size="9.00" fill="#000000">reach</text>
</g>
<!-- selector01&#45;&gt;reach -->
<g id="edge3" class="edge">
<title>selector01&#45;&gt;reach</title>
<path fill="none" stroke="#000000" d="M106.5996,-71.8314C106.5996,-64.131 106.5996,-54.9743 106.5996,-46.4166"/>
<polygon fill="#000000" stroke="#000000" points="110.0997,-46.4132 106.5996,-36.4133 103.0997,-46.4133 110.0997,-46.4132"/>
</g>
<!-- isPicked -->
<g id="node6" class="node">
<title>isPicked</title>
<ellipse fill="#c0c0c0" stroke="#000000" cx="178.5996" cy="-18" rx="27.2716" ry="18"/>
<text text-anchor="middle" x="178.5996" y="-15.8" font-family="Times,serif" font-size="9.00" fill="#000000">isPicked</text>
</g>
<!-- selector02&#45;&gt;isPicked -->
<g id="edge5" class="edge">
<title>selector02&#45;&gt;isPicked</title>
<path fill="none" stroke="#000000" d="M205.5152,-71.8314C201.3721,-63.5451 196.3859,-53.5727 191.837,-44.4748"/>
<polygon fill="#000000" stroke="#000000" points="194.9111,-42.7967 187.3084,-35.4177 188.6501,-45.9273 194.9111,-42.7967"/>
</g>
<!-- pick -->
<g id="node7" class="node">
<title>pick</title>
<ellipse fill="#c0c0c0" stroke="#000000" cx="250.5996" cy="-18" rx="27" ry="18"/>
<text text-anchor="middle" x="250.5996" y="-15.8" font-family="Times,serif" font-size="9.00" fill="#000000">pick</text>
</g>
<!-- selector02&#45;&gt;pick -->
<g id="edge6" class="edge">
<title>selector02&#45;&gt;pick</title>
<path fill="none" stroke="#000000" d="M223.6839,-71.8314C227.827,-63.5451 232.8132,-53.5727 237.3622,-44.4748"/>
<polygon fill="#000000" stroke="#000000" points="240.549,-45.9273 241.8907,-35.4177 234.288,-42.7967 240.549,-45.9273"/>
</g>
<!-- isPlaced -->
<g id="node9" class="node">
<title>isPlaced</title>
<ellipse fill="#c0c0c0" stroke="#000000" cx="322.5996" cy="-18" rx="27" ry="18"/>
<text text-anchor="middle" x="322.5996" y="-15.8" font-family="Times,serif" font-size="9.00" fill="#000000">isPlaced</text>
</g>
<!-- selector03&#45;&gt;isPlaced -->
<g id="edge8" class="edge">
<title>selector03&#45;&gt;isPlaced</title>
<path fill="none" stroke="#000000" d="M322.5996,-71.8314C322.5996,-64.131 322.5996,-54.9743 322.5996,-46.4166"/>
<polygon fill="#000000" stroke="#000000" points="326.0997,-46.4132 322.5996,-36.4133 319.0997,-46.4133 326.0997,-46.4132"/>
</g>
<!-- place -->
<g id="node10" class="node">
<title>place</title>
<ellipse fill="#c0c0c0" stroke="#000000" cx="394.5996" cy="-18" rx="27" ry="18"/>
<text text-anchor="middle" x="394.5996" y="-15.8" font-family="Times,serif" font-size="9.00" fill="#000000">place</text>
</g>
<!-- selector03&#45;&gt;place -->
<g id="edge9" class="edge">
<title>selector03&#45;&gt;place</title>
<path fill="none" stroke="#000000" d="M339.2988,-73.3008C349.0599,-63.5397 361.5087,-51.0909 372.1226,-40.477"/>
<polygon fill="#000000" stroke="#000000" points="374.8659,-42.6834 379.4621,-33.1374 369.9161,-37.7337 374.8659,-42.6834"/>
</g>
</g>
</svg>
