<?xml version="1.0" encoding="UTF-8" standalone="no"?>
<!DOCTYPE svg PUBLIC "-//W3C//DTD SVG 1.1//EN"
 "http://www.w3.org/Graphics/SVG/1.1/DTD/svg11.dtd">
<!-- Generated by graphviz version 2.40.1 (20161225.0304)
 -->
<!-- Title: pastafarianism Pages: 1 -->
<svg width="327pt" height="260pt"
 viewBox="0.00 0.00 326.60 260.00" xmlns="http://www.w3.org/2000/svg" xmlns:xlink="http://www.w3.org/1999/xlink">
<g id="graph0" class="graph" transform="scale(1 1) rotate(0) translate(4 256)">
<title>pastafarianism</title>
<polygon fill="#ffffff" stroke="transparent" points="-4,4 -4,-256 322.5996,-256 322.5996,4 -4,4"/>
<!-- Task Planner demo -->
<g id="node1" class="node">
<title>Task Planner demo</title>
<polygon fill="#ffa500" stroke="#000000" points="189.0996,-252 104.0996,-252 104.0996,-216 189.0996,-216 189.0996,-252"/>
<text text-anchor="middle" x="146.5996" y="-231.8" font-family="Times,serif" font-size="9.00" fill="#000000">Task Planner demo</text>
</g>
<!-- selector01 -->
<g id="node2" class="node">
<title>selector01</title>
<polygon fill="#00ffff" stroke="#000000" points="137.8415,-154.5442 137.8415,-169.4558 118.3688,-180 90.8303,-180 71.3577,-169.4558 71.3577,-154.5442 90.8303,-144 118.3688,-144 137.8415,-154.5442"/>
<text text-anchor="middle" x="104.5996" y="-159.8" font-family="Times,serif" font-size="9.00" fill="#000000">selector01</text>
</g>
<!-- Task Planner demo&#45;&gt;selector01 -->
<g id="edge1" class="edge">
<title>Task Planner demo&#45;&gt;selector01</title>
<path fill="none" stroke="#000000" d="M136.0012,-215.8314C131.3118,-207.7925 125.6967,-198.1666 120.5198,-189.2918"/>
<polygon fill="#000000" stroke="#000000" points="123.4026,-187.2875 115.3406,-180.4133 117.3562,-190.8146 123.4026,-187.2875"/>
</g>
<!-- selector02 -->
<g id="node7" class="node">
<title>selector02</title>
<polygon fill="#00ffff" stroke="#000000" points="221.8415,-154.5442 221.8415,-169.4558 202.3688,-180 174.8303,-180 155.3577,-169.4558 155.3577,-154.5442 174.8303,-144 202.3688,-144 221.8415,-154.5442"/>
<text text-anchor="middle" x="188.5996" y="-159.8" font-family="Times,serif" font-size="9.00" fill="#000000">selector02</text>
</g>
<!-- Task Planner demo&#45;&gt;selector02 -->
<g id="edge6" class="edge">
<title>Task Planner demo&#45;&gt;selector02</title>
<path fill="none" stroke="#000000" d="M157.1979,-215.8314C161.8873,-207.7925 167.5024,-198.1666 172.6794,-189.2918"/>
<polygon fill="#000000" stroke="#000000" points="175.843,-190.8146 177.8585,-180.4133 169.7965,-187.2875 175.843,-190.8146"/>
</g>
<!-- isReached -->
<g id="node3" class="node">
<title>isReached</title>
<ellipse fill="#c0c0c0" stroke="#000000" cx="30.5996" cy="-90" rx="30.6995" ry="18"/>
<text text-anchor="middle" x="30.5996" y="-87.8" font-family="Times,serif" font-size="9.00" fill="#000000">isReached</text>
</g>
<!-- selector01&#45;&gt;isReached -->
<g id="edge2" class="edge">
<title>selector01&#45;&gt;isReached</title>
<path fill="none" stroke="#000000" d="M87.4365,-145.3008C77.4456,-135.5799 64.7151,-123.1935 53.8359,-112.6084"/>
<polygon fill="#000000" stroke="#000000" points="56.2645,-110.088 46.6565,-105.6229 51.383,-115.1051 56.2645,-110.088"/>
</g>
<!-- isReached* -->
<g id="node4" class="node">
<title>isReached*</title>
<polygon fill="#ffa500" stroke="#000000" points="136.0996,-108 79.0996,-108 79.0996,-72 136.0996,-72 136.0996,-108"/>
<text text-anchor="middle" x="107.5996" y="-87.8" font-family="Times,serif" font-size="9.00" fill="#000000">isReached*</text>
</g>
<!-- selector01&#45;&gt;isReached* -->
<g id="edge3" class="edge">
<title>selector01&#45;&gt;isReached*</title>
<path fill="none" stroke="#000000" d="M105.3566,-143.8314C105.6774,-136.131 106.059,-126.9743 106.4155,-118.4166"/>
<polygon fill="#000000" stroke="#000000" points="109.9129,-118.5503 106.8323,-108.4133 102.919,-118.2589 109.9129,-118.5503"/>
</g>
<!-- reach -->
<g id="node5" class="node">
<title>reach</title>
<ellipse fill="#c0c0c0" stroke="#000000" cx="74.5996" cy="-18" rx="27" ry="18"/>
<text text-anchor="middle" x="74.5996" y="-15.8" font-family="Times,serif" font-size="9.00" fill="#000000">reach</text>
</g>
<!-- isReached*&#45;&gt;reach -->
<g id="edge4" class="edge">
<title>isReached*&#45;&gt;reach</title>
<path fill="none" stroke="#000000" d="M99.2723,-71.8314C95.5144,-63.6323 90.9999,-53.7824 86.8657,-44.7624"/>
<polygon fill="#000000" stroke="#000000" points="89.931,-43.0501 82.5827,-35.4177 83.5676,-45.9667 89.931,-43.0501"/>
</g>
<!-- reached -->
<g id="node6" class="node">
<title>reached</title>
<ellipse fill="#c0c0c0" stroke="#000000" cx="146.5996" cy="-18" rx="27" ry="18"/>
<text text-anchor="middle" x="146.5996" y="-15.8" font-family="Times,serif" font-size="9.00" fill="#000000">reached</text>
</g>
<!-- isReached*&#45;&gt;reached -->
<g id="edge5" class="edge">
<title>isReached*&#45;&gt;reached</title>
<path fill="none" stroke="#000000" d="M117.4409,-71.8314C121.9293,-63.5451 127.331,-53.5727 132.2591,-44.4748"/>
<polygon fill="#000000" stroke="#000000" points="135.4796,-45.8777 137.165,-35.4177 129.3246,-42.5436 135.4796,-45.8777"/>
</g>
<!-- isPicked -->
<g id="node8" class="node">
<title>isPicked</title>
<ellipse fill="#c0c0c0" stroke="#000000" cx="186.5996" cy="-90" rx="27.2716" ry="18"/>
<text text-anchor="middle" x="186.5996" y="-87.8" font-family="Times,serif" font-size="9.00" fill="#000000">isPicked</text>
</g>
<!-- selector02&#45;&gt;isPicked -->
<g id="edge7" class="edge">
<title>selector02&#45;&gt;isPicked</title>
<path fill="none" stroke="#000000" d="M188.0949,-143.8314C187.881,-136.131 187.6266,-126.9743 187.3889,-118.4166"/>
<polygon fill="#000000" stroke="#000000" points="190.8875,-118.3122 187.111,-108.4133 183.8902,-118.5066 190.8875,-118.3122"/>
</g>
<!-- isPicked* -->
<g id="node9" class="node">
<title>isPicked*</title>
<polygon fill="#ffa500" stroke="#000000" points="285.5996,-108 231.5996,-108 231.5996,-72 285.5996,-72 285.5996,-108"/>
<text text-anchor="middle" x="258.5996" y="-87.8" font-family="Times,serif" font-size="9.00" fill="#000000">isPicked*</text>
</g>
<!-- selector02&#45;&gt;isPicked* -->
<g id="edge8" class="edge">
<title>selector02&#45;&gt;isPicked*</title>
<path fill="none" stroke="#000000" d="M204.8349,-145.3008C213.4603,-136.429 224.2443,-125.3368 233.8856,-115.4201"/>
<polygon fill="#000000" stroke="#000000" points="236.5195,-117.7319 240.9808,-108.1222 231.5005,-112.8523 236.5195,-117.7319"/>
</g>
<!-- pick -->
<g id="node10" class="node">
<title>pick</title>
<ellipse fill="#c0c0c0" stroke="#000000" cx="219.5996" cy="-18" rx="27" ry="18"/>
<text text-anchor="middle" x="219.5996" y="-15.8" font-family="Times,serif" font-size="9.00" fill="#000000">pick</text>
</g>
<!-- isPicked*&#45;&gt;pick -->
<g id="edge9" class="edge">
<title>isPicked*&#45;&gt;pick</title>
<path fill="none" stroke="#000000" d="M248.7582,-71.8314C244.2698,-63.5451 238.8681,-53.5727 233.9401,-44.4748"/>
<polygon fill="#000000" stroke="#000000" points="236.8746,-42.5436 229.0342,-35.4177 230.7195,-45.8777 236.8746,-42.5436"/>
</g>
<!-- picked -->
<g id="node11" class="node">
<title>picked</title>
<ellipse fill="#c0c0c0" stroke="#000000" cx="291.5996" cy="-18" rx="27" ry="18"/>
<text text-anchor="middle" x="291.5996" y="-15.8" font-family="Times,serif" font-size="9.00" fill="#000000">picked</text>
</g>
<!-- isPicked*&#45;&gt;picked -->
<g id="edge10" class="edge">
<title>isPicked*&#45;&gt;picked</title>
<path fill="none" stroke="#000000" d="M266.9269,-71.8314C270.6847,-63.6323 275.1993,-53.7824 279.3335,-44.7624"/>
<polygon fill="#000000" stroke="#000000" points="282.6316,-45.9667 283.6164,-35.4177 276.2681,-43.0501 282.6316,-45.9667"/>
</g>
</g>
</svg>
